<mxfile host="app.diagrams.net" modified="2024-01-05T15:35:15.637Z" agent="Mozilla/5.0 (Windows NT 10.0; Win64; x64) AppleWebKit/537.36 (KHTML, like Gecko) Chrome/120.0.0.0 Safari/537.36 Edg/120.0.0.0" etag="mwLwzMAEhMZ_q8HjzTLk" version="22.1.17" type="github">
  <diagram id="C5RBs43oDa-KdzZeNtuy" name="Page-1">
    <mxGraphModel dx="1146" dy="763" grid="1" gridSize="10" guides="1" tooltips="1" connect="1" arrows="1" fold="1" page="1" pageScale="1" pageWidth="827" pageHeight="1169" math="0" shadow="0">
      <root>
        <mxCell id="WIyWlLk6GJQsqaUBKTNV-0" />
        <mxCell id="WIyWlLk6GJQsqaUBKTNV-1" parent="WIyWlLk6GJQsqaUBKTNV-0" />
        <mxCell id="1_Ts7adoZFFohDj0qqpP-33" value="" style="edgeStyle=orthogonalEdgeStyle;rounded=0;orthogonalLoop=1;jettySize=auto;html=1;" edge="1" parent="WIyWlLk6GJQsqaUBKTNV-1" source="WIyWlLk6GJQsqaUBKTNV-6" target="1_Ts7adoZFFohDj0qqpP-32">
          <mxGeometry relative="1" as="geometry" />
        </mxCell>
        <mxCell id="1_Ts7adoZFFohDj0qqpP-34" value="No" style="edgeLabel;html=1;align=center;verticalAlign=middle;resizable=0;points=[];" vertex="1" connectable="0" parent="1_Ts7adoZFFohDj0qqpP-33">
          <mxGeometry x="0.2" relative="1" as="geometry">
            <mxPoint x="10" as="offset" />
          </mxGeometry>
        </mxCell>
        <mxCell id="1_Ts7adoZFFohDj0qqpP-36" value="" style="edgeStyle=orthogonalEdgeStyle;rounded=0;orthogonalLoop=1;jettySize=auto;html=1;" edge="1" parent="WIyWlLk6GJQsqaUBKTNV-1" source="WIyWlLk6GJQsqaUBKTNV-6" target="1_Ts7adoZFFohDj0qqpP-3">
          <mxGeometry relative="1" as="geometry" />
        </mxCell>
        <mxCell id="1_Ts7adoZFFohDj0qqpP-37" value="Yes" style="edgeLabel;html=1;align=center;verticalAlign=middle;resizable=0;points=[];" vertex="1" connectable="0" parent="1_Ts7adoZFFohDj0qqpP-36">
          <mxGeometry x="-0.16" y="2" relative="1" as="geometry">
            <mxPoint x="-1" y="-8" as="offset" />
          </mxGeometry>
        </mxCell>
        <mxCell id="WIyWlLk6GJQsqaUBKTNV-6" value="Has previous task failed" style="rhombus;whiteSpace=wrap;html=1;shadow=0;fontFamily=Helvetica;fontSize=12;align=center;strokeWidth=1;spacing=6;spacingTop=-4;" parent="WIyWlLk6GJQsqaUBKTNV-1" vertex="1">
          <mxGeometry x="280" y="540" width="100" height="80" as="geometry" />
        </mxCell>
        <mxCell id="1_Ts7adoZFFohDj0qqpP-48" value="" style="edgeStyle=orthogonalEdgeStyle;rounded=0;orthogonalLoop=1;jettySize=auto;html=1;" edge="1" parent="WIyWlLk6GJQsqaUBKTNV-1" source="WIyWlLk6GJQsqaUBKTNV-10" target="1_Ts7adoZFFohDj0qqpP-8">
          <mxGeometry relative="1" as="geometry" />
        </mxCell>
        <mxCell id="1_Ts7adoZFFohDj0qqpP-49" value="Yes" style="edgeLabel;html=1;align=center;verticalAlign=middle;resizable=0;points=[];" vertex="1" connectable="0" parent="1_Ts7adoZFFohDj0qqpP-48">
          <mxGeometry x="0.0182" y="-4" relative="1" as="geometry">
            <mxPoint x="13" y="27" as="offset" />
          </mxGeometry>
        </mxCell>
        <mxCell id="1_Ts7adoZFFohDj0qqpP-50" value="" style="edgeStyle=orthogonalEdgeStyle;rounded=0;orthogonalLoop=1;jettySize=auto;html=1;" edge="1" parent="WIyWlLk6GJQsqaUBKTNV-1" source="WIyWlLk6GJQsqaUBKTNV-10" target="1_Ts7adoZFFohDj0qqpP-2">
          <mxGeometry relative="1" as="geometry" />
        </mxCell>
        <mxCell id="1_Ts7adoZFFohDj0qqpP-51" value="No" style="edgeLabel;html=1;align=center;verticalAlign=middle;resizable=0;points=[];" vertex="1" connectable="0" parent="1_Ts7adoZFFohDj0qqpP-50">
          <mxGeometry x="0.24" relative="1" as="geometry">
            <mxPoint x="10" y="-1" as="offset" />
          </mxGeometry>
        </mxCell>
        <mxCell id="WIyWlLk6GJQsqaUBKTNV-10" value="Has build failed" style="rhombus;whiteSpace=wrap;html=1;shadow=0;fontFamily=Helvetica;fontSize=12;align=center;strokeWidth=1;spacing=6;spacingTop=-4;" parent="WIyWlLk6GJQsqaUBKTNV-1" vertex="1">
          <mxGeometry x="460" y="290" width="100" height="80" as="geometry" />
        </mxCell>
        <mxCell id="1_Ts7adoZFFohDj0qqpP-11" value="" style="edgeStyle=orthogonalEdgeStyle;rounded=0;orthogonalLoop=1;jettySize=auto;html=1;" edge="1" parent="WIyWlLk6GJQsqaUBKTNV-1" source="WIyWlLk6GJQsqaUBKTNV-12" target="1_Ts7adoZFFohDj0qqpP-7">
          <mxGeometry relative="1" as="geometry" />
        </mxCell>
        <mxCell id="WIyWlLk6GJQsqaUBKTNV-12" value="testing-e2e-dev.yml" style="rounded=1;whiteSpace=wrap;html=1;fontSize=12;glass=0;strokeWidth=1;shadow=0;fillColor=#ffe6cc;strokeColor=#d79b00;" parent="WIyWlLk6GJQsqaUBKTNV-1" vertex="1">
          <mxGeometry x="255" y="165" width="150" height="40" as="geometry" />
        </mxCell>
        <mxCell id="1_Ts7adoZFFohDj0qqpP-60" value="" style="edgeStyle=orthogonalEdgeStyle;rounded=0;orthogonalLoop=1;jettySize=auto;html=1;" edge="1" parent="WIyWlLk6GJQsqaUBKTNV-1" source="1_Ts7adoZFFohDj0qqpP-1" target="1_Ts7adoZFFohDj0qqpP-8">
          <mxGeometry relative="1" as="geometry" />
        </mxCell>
        <mxCell id="1_Ts7adoZFFohDj0qqpP-1" value="create-report.psm1" style="rounded=1;whiteSpace=wrap;html=1;fontSize=12;glass=0;strokeWidth=1;shadow=0;fillColor=#dae8fc;strokeColor=#6c8ebf;" vertex="1" parent="WIyWlLk6GJQsqaUBKTNV-1">
          <mxGeometry x="450" y="470" width="120" height="40" as="geometry" />
        </mxCell>
        <mxCell id="1_Ts7adoZFFohDj0qqpP-58" value="" style="edgeStyle=orthogonalEdgeStyle;rounded=0;orthogonalLoop=1;jettySize=auto;html=1;" edge="1" parent="WIyWlLk6GJQsqaUBKTNV-1" source="1_Ts7adoZFFohDj0qqpP-2" target="1_Ts7adoZFFohDj0qqpP-1">
          <mxGeometry relative="1" as="geometry" />
        </mxCell>
        <mxCell id="1_Ts7adoZFFohDj0qqpP-2" value="notify-results.psm1" style="rounded=1;whiteSpace=wrap;html=1;fontSize=12;glass=0;strokeWidth=1;shadow=0;fillColor=#dae8fc;strokeColor=#6c8ebf;" vertex="1" parent="WIyWlLk6GJQsqaUBKTNV-1">
          <mxGeometry x="450" y="400" width="120" height="40" as="geometry" />
        </mxCell>
        <mxCell id="1_Ts7adoZFFohDj0qqpP-46" style="edgeStyle=orthogonalEdgeStyle;rounded=0;orthogonalLoop=1;jettySize=auto;html=1;exitX=0.5;exitY=1;exitDx=0;exitDy=0;entryX=0;entryY=0.5;entryDx=0;entryDy=0;" edge="1" parent="WIyWlLk6GJQsqaUBKTNV-1" source="1_Ts7adoZFFohDj0qqpP-3" target="1_Ts7adoZFFohDj0qqpP-32">
          <mxGeometry relative="1" as="geometry" />
        </mxCell>
        <mxCell id="1_Ts7adoZFFohDj0qqpP-3" value="notify-fail.psm1" style="rounded=1;whiteSpace=wrap;html=1;fontSize=12;glass=0;strokeWidth=1;shadow=0;fillColor=#dae8fc;strokeColor=#6c8ebf;" vertex="1" parent="WIyWlLk6GJQsqaUBKTNV-1">
          <mxGeometry x="90" y="560" width="120" height="40" as="geometry" />
        </mxCell>
        <mxCell id="1_Ts7adoZFFohDj0qqpP-10" style="edgeStyle=orthogonalEdgeStyle;rounded=0;orthogonalLoop=1;jettySize=auto;html=1;exitX=0.5;exitY=1;exitDx=0;exitDy=0;entryX=0.5;entryY=0;entryDx=0;entryDy=0;" edge="1" parent="WIyWlLk6GJQsqaUBKTNV-1" source="1_Ts7adoZFFohDj0qqpP-4" target="WIyWlLk6GJQsqaUBKTNV-12">
          <mxGeometry relative="1" as="geometry" />
        </mxCell>
        <mxCell id="1_Ts7adoZFFohDj0qqpP-4" value="Start" style="ellipse;whiteSpace=wrap;html=1;" vertex="1" parent="WIyWlLk6GJQsqaUBKTNV-1">
          <mxGeometry x="280" y="85" width="100" height="50" as="geometry" />
        </mxCell>
        <mxCell id="1_Ts7adoZFFohDj0qqpP-5" value="Finish" style="ellipse;whiteSpace=wrap;html=1;" vertex="1" parent="WIyWlLk6GJQsqaUBKTNV-1">
          <mxGeometry x="280" y="730" width="100" height="50" as="geometry" />
        </mxCell>
        <mxCell id="1_Ts7adoZFFohDj0qqpP-47" style="edgeStyle=orthogonalEdgeStyle;rounded=0;orthogonalLoop=1;jettySize=auto;html=1;exitX=1;exitY=0.5;exitDx=0;exitDy=0;entryX=0.5;entryY=0;entryDx=0;entryDy=0;" edge="1" parent="WIyWlLk6GJQsqaUBKTNV-1" source="1_Ts7adoZFFohDj0qqpP-7" target="WIyWlLk6GJQsqaUBKTNV-10">
          <mxGeometry relative="1" as="geometry" />
        </mxCell>
        <mxCell id="1_Ts7adoZFFohDj0qqpP-7" value="tasks-testing-e2e.yml" style="rounded=1;whiteSpace=wrap;html=1;fontSize=12;glass=0;strokeWidth=1;shadow=0;fillColor=#ffe6cc;strokeColor=#d79b00;" vertex="1" parent="WIyWlLk6GJQsqaUBKTNV-1">
          <mxGeometry x="255" y="235" width="150" height="40" as="geometry" />
        </mxCell>
        <mxCell id="1_Ts7adoZFFohDj0qqpP-20" value="" style="edgeStyle=orthogonalEdgeStyle;rounded=0;orthogonalLoop=1;jettySize=auto;html=1;" edge="1" parent="WIyWlLk6GJQsqaUBKTNV-1" source="1_Ts7adoZFFohDj0qqpP-8" target="WIyWlLk6GJQsqaUBKTNV-6">
          <mxGeometry relative="1" as="geometry" />
        </mxCell>
        <mxCell id="1_Ts7adoZFFohDj0qqpP-8" value="tasks-testing-fail.yml" style="rounded=1;whiteSpace=wrap;html=1;fontSize=12;glass=0;strokeWidth=1;shadow=0;fillColor=#ffe6cc;strokeColor=#d79b00;" vertex="1" parent="WIyWlLk6GJQsqaUBKTNV-1">
          <mxGeometry x="255" y="470" width="150" height="40" as="geometry" />
        </mxCell>
        <mxCell id="1_Ts7adoZFFohDj0qqpP-9" value="&lt;font style=&quot;font-size: 20px;&quot;&gt;Running Azure Pipeline on Dev&lt;/font&gt;" style="text;html=1;strokeColor=none;fillColor=none;align=center;verticalAlign=middle;whiteSpace=wrap;rounded=0;" vertex="1" parent="WIyWlLk6GJQsqaUBKTNV-1">
          <mxGeometry x="180" y="30" width="410" height="30" as="geometry" />
        </mxCell>
        <mxCell id="1_Ts7adoZFFohDj0qqpP-13" value="" style="edgeStyle=orthogonalEdgeStyle;rounded=0;orthogonalLoop=1;jettySize=auto;html=1;" edge="1" parent="WIyWlLk6GJQsqaUBKTNV-1" source="1_Ts7adoZFFohDj0qqpP-12" target="WIyWlLk6GJQsqaUBKTNV-12">
          <mxGeometry relative="1" as="geometry">
            <Array as="points">
              <mxPoint x="220" y="173" />
              <mxPoint x="220" y="185" />
            </Array>
          </mxGeometry>
        </mxCell>
        <mxCell id="1_Ts7adoZFFohDj0qqpP-12" value="variables-testing.yml" style="shape=parallelogram;perimeter=parallelogramPerimeter;whiteSpace=wrap;html=1;fixedSize=1;fillColor=#ffe6cc;strokeColor=#d79b00;" vertex="1" parent="WIyWlLk6GJQsqaUBKTNV-1">
          <mxGeometry x="40" y="155" width="150" height="35" as="geometry" />
        </mxCell>
        <mxCell id="1_Ts7adoZFFohDj0qqpP-35" value="" style="edgeStyle=orthogonalEdgeStyle;rounded=0;orthogonalLoop=1;jettySize=auto;html=1;" edge="1" parent="WIyWlLk6GJQsqaUBKTNV-1" source="1_Ts7adoZFFohDj0qqpP-32" target="1_Ts7adoZFFohDj0qqpP-5">
          <mxGeometry relative="1" as="geometry" />
        </mxCell>
        <mxCell id="1_Ts7adoZFFohDj0qqpP-32" value="" style="ellipse;whiteSpace=wrap;html=1;aspect=fixed;" vertex="1" parent="WIyWlLk6GJQsqaUBKTNV-1">
          <mxGeometry x="305" y="650" width="50" height="50" as="geometry" />
        </mxCell>
        <mxCell id="1_Ts7adoZFFohDj0qqpP-40" style="edgeStyle=orthogonalEdgeStyle;rounded=0;orthogonalLoop=1;jettySize=auto;html=1;exitX=1;exitY=0.5;exitDx=0;exitDy=0;entryX=0;entryY=0.5;entryDx=0;entryDy=0;" edge="1" parent="WIyWlLk6GJQsqaUBKTNV-1" source="1_Ts7adoZFFohDj0qqpP-39" target="WIyWlLk6GJQsqaUBKTNV-12">
          <mxGeometry relative="1" as="geometry">
            <Array as="points">
              <mxPoint x="220" y="208" />
              <mxPoint x="220" y="185" />
            </Array>
          </mxGeometry>
        </mxCell>
        <mxCell id="1_Ts7adoZFFohDj0qqpP-39" value="variables-dev.yml" style="shape=parallelogram;perimeter=parallelogramPerimeter;whiteSpace=wrap;html=1;fixedSize=1;fillColor=#ffe6cc;strokeColor=#d79b00;" vertex="1" parent="WIyWlLk6GJQsqaUBKTNV-1">
          <mxGeometry x="20" y="190" width="150" height="35" as="geometry" />
        </mxCell>
        <mxCell id="1_Ts7adoZFFohDj0qqpP-41" value="Input" style="text;html=1;align=center;verticalAlign=middle;resizable=0;points=[];autosize=1;strokeColor=none;fillColor=none;" vertex="1" parent="WIyWlLk6GJQsqaUBKTNV-1">
          <mxGeometry x="90" y="125" width="50" height="30" as="geometry" />
        </mxCell>
        <mxCell id="1_Ts7adoZFFohDj0qqpP-52" style="edgeStyle=orthogonalEdgeStyle;rounded=0;orthogonalLoop=1;jettySize=auto;html=1;exitX=0.5;exitY=1;exitDx=0;exitDy=0;" edge="1" parent="WIyWlLk6GJQsqaUBKTNV-1">
          <mxGeometry relative="1" as="geometry">
            <mxPoint x="690" y="335" as="sourcePoint" />
            <mxPoint x="690" y="335" as="targetPoint" />
          </mxGeometry>
        </mxCell>
        <mxCell id="1_Ts7adoZFFohDj0qqpP-56" style="edgeStyle=orthogonalEdgeStyle;rounded=0;orthogonalLoop=1;jettySize=auto;html=1;exitX=0;exitY=0.5;exitDx=0;exitDy=0;entryX=1;entryY=0.5;entryDx=0;entryDy=0;" edge="1" parent="WIyWlLk6GJQsqaUBKTNV-1" source="1_Ts7adoZFFohDj0qqpP-53" target="1_Ts7adoZFFohDj0qqpP-2">
          <mxGeometry relative="1" as="geometry">
            <Array as="points">
              <mxPoint x="610" y="405" />
              <mxPoint x="610" y="420" />
            </Array>
          </mxGeometry>
        </mxCell>
        <mxCell id="1_Ts7adoZFFohDj0qqpP-53" value="notify.psm1" style="shape=parallelogram;perimeter=parallelogramPerimeter;whiteSpace=wrap;html=1;fixedSize=1;fillColor=#dae8fc;strokeColor=#6c8ebf;" vertex="1" parent="WIyWlLk6GJQsqaUBKTNV-1">
          <mxGeometry x="660" y="390" width="120" height="30" as="geometry" />
        </mxCell>
        <mxCell id="1_Ts7adoZFFohDj0qqpP-57" style="edgeStyle=orthogonalEdgeStyle;rounded=0;orthogonalLoop=1;jettySize=auto;html=1;exitX=0;exitY=0.5;exitDx=0;exitDy=0;" edge="1" parent="WIyWlLk6GJQsqaUBKTNV-1" source="1_Ts7adoZFFohDj0qqpP-54">
          <mxGeometry relative="1" as="geometry">
            <mxPoint x="570" y="420" as="targetPoint" />
            <Array as="points">
              <mxPoint x="610" y="435" />
              <mxPoint x="610" y="421" />
            </Array>
          </mxGeometry>
        </mxCell>
        <mxCell id="1_Ts7adoZFFohDj0qqpP-54" value="test-data.psm1" style="shape=parallelogram;perimeter=parallelogramPerimeter;whiteSpace=wrap;html=1;fixedSize=1;fillColor=#dae8fc;strokeColor=#6c8ebf;" vertex="1" parent="WIyWlLk6GJQsqaUBKTNV-1">
          <mxGeometry x="640" y="420" width="120" height="30" as="geometry" />
        </mxCell>
      </root>
    </mxGraphModel>
  </diagram>
</mxfile>
